<svg xmlns="http://www.w3.org/2000/svg" viewBox="0 0 64 64" width="64" height="64" fill="none">
  <rect width="64" height="64" rx="13" fill="#e2511e"/><g transform="translate(32 32) rotate(45) scale(1.200) translate(0 -2.0)" fill="#ffffff"><path d="M -11.0 -12.8 A 4.2 4.2 0 0 1 -6.8 -17.0 L -5.4 -17.0 L -5.4 -7.4 A 5.4 5.4 0 0 0 5.4 -7.4 L 5.4 -17.0 L 6.8 -17.0 A 4.2 4.2 0 0 1 11.0 -12.8 L 11.0 -5.2 A 4.2 4.2 0 0 1 6.8 -1.0 L -6.8 -1.0 A 4.2 4.2 0 0 1 -11.0 -5.2 Z"/><path d="M -4.7 -4 L -4.7 16.3 A 4.7 4.7 0 0 0 4.7 16.3 L 4.7 -4 Z"/></g>
</svg>